<svg width="204" height="74" viewBox="0 0 204 74" fill="none" xmlns="http://www.w3.org/2000/svg">
<path d="M0.5 68.0338C0.5 65.0338 1.5 60.5 2.5 57.5C3.77873 53.7371 5.44254 49.4357 8 46C22 24.5 45.2555 9.30468 75.7318 2.76055C106.848 -3.78358 136.258 1.45171 160.767 18.4665C173.128 26.9738 182.506 37.2808 189.752 48.7331C191.03 50.8599 193.14 56.5485 195.484 59.9842C198.255 55.2397 199.455 48.8611 201.586 45.0982C202.226 45.2618 202.621 44.4797 203.474 44.6433C203.687 45.7885 204.168 47.1024 203.955 48.2476C203.316 53.9737 201.54 57.8517 200.688 63.5778C200.048 67.3407 202.735 71.864 197.407 73.5C191.866 75.2996 190.158 71.7991 186.535 69.0178C181.633 65.0913 172.354 62.2099 168.091 57.7926C167.239 56.811 168.087 57.4623 168.087 55.9899C170.005 55.9899 172.475 55.7734 173.754 56.4278C177.59 58.5546 182.895 59.6401 186.518 62.2578C186.731 61.7669 191.593 65.401 189.783 61.482C173.16 25.4893 134.127 3.08776 85.5354 6.85063C83.1911 7.01424 80.8467 7.34144 78.5024 7.99585C45.8948 16.0124 21.8121 31.5547 7.10676 55.4408C5.18867 58.5493 2.84433 67.0982 1.56561 70.5338C0.713121 70.5338 0.5 69.5338 0.5 68.0338Z" fill="black"/>
</svg>
