<svg width="19" height="58" viewBox="0 0 19 58" fill="none" xmlns="http://www.w3.org/2000/svg">
<path d="M10.4928 52.5C11.8233 50.6356 14.2387 44.7521 15.2064 43.3783C15.644 42.8428 15.634 42.3073 16.0516 41.7717C16.5959 41.1339 17.1759 39.9971 18.325 40.4878C19.4136 40.9784 18.9298 41.9106 18.6274 42.5975C18.3855 43.3334 17.9017 44.0693 17.4783 44.7562C15.6035 47.9453 13.7724 51.4935 11.8371 54.6335C11.2928 55.4675 11.2186 56.0307 10.4928 56.7666C9.04132 58.3366 7.74308 58.4839 6.65447 56.7667C5.20298 54.4608 3.20537 51.8213 1.87484 49.4662C1.27005 48.485 0.66527 47.4547 0.24192 46.4244C5.52833e-06 45.8356 0 45 0 44.5C1.6934 44.3037 2.05627 45.0997 2.47962 45.7865C3.62872 47.5037 4.71733 49.27 5.86643 50.9872C6.28978 51.5759 6.26672 51.9112 7.23438 52.5C7.30714 51.7955 7.43952 51.3831 7.5 50.5C7.5 44.0736 7.23438 37.462 7.23438 30.5C7.23438 21.3959 6.87955 10.8934 7.23438 1.5C7.25459 0.964848 8 0 8.78242 0C9.5 0 9.5 0 10 0.5C10 5.31982 10.0652 11.2462 10.0652 16.0661C10.0652 26.2412 10.0652 35.8809 10.0652 46.056C10.0652 46.056 10.3114 51.7641 10.4928 52.5Z" fill="#9A9BA4"/>
</svg>
