<svg width="204" height="74" viewBox="0 0 204 74" fill="none" xmlns="http://www.w3.org/2000/svg">
<path d="M0.5 5.96617C0.5 8.96618 1.5 13.5 2.5 16.5C3.77873 20.2629 5.44254 24.5643 8 28C22 49.5 45.2555 64.6953 75.7318 71.2395C106.848 77.7836 136.258 72.5483 160.767 55.5335C173.128 47.0262 182.506 36.7192 189.752 25.2669C191.03 23.1401 193.14 17.4515 195.484 14.0158C198.255 18.7603 199.455 25.1389 201.586 28.9018C202.226 28.7382 202.621 29.5203 203.474 29.3567C203.687 28.2115 204.168 26.8976 203.955 25.7524C203.316 20.0263 201.54 16.1483 200.688 10.4222C200.048 6.65931 202.735 2.13603 197.407 0.499997C191.866 -1.29964 190.158 2.20094 186.535 4.9822C181.633 8.90868 172.354 11.7901 168.091 16.2074C167.239 17.189 168.087 16.5377 168.087 18.0101C170.005 18.0101 172.475 18.2266 173.754 17.5722C177.59 15.4454 182.895 14.3599 186.518 11.7422C186.731 12.2331 191.593 8.59899 189.783 12.518C173.16 48.5107 134.127 70.9122 85.5354 67.1494C83.1911 66.9858 80.8467 66.6586 78.5024 66.0041C45.8948 57.9876 21.8121 42.4453 7.10676 18.5592C5.18867 15.4507 2.84433 6.90184 1.56561 3.46617C0.713121 3.46617 0.5 4.46617 0.5 5.96617Z" fill="black"/>
</svg>
