<svg width="103" height="39" viewBox="0 0 103 39" fill="none" xmlns="http://www.w3.org/2000/svg">
<path d="M93.2328 17.4621C89.9219 14.731 79.4736 9.77312 77.034 7.78688C76.0829 6.88861 75.1319 6.90918 74.1808 6.05206C73.0482 4.9348 71.0294 3.74416 71.9007 1.38549C72.772 -0.84903 74.4274 0.144093 75.6472 0.764797C76.9541 1.26136 78.2611 2.25449 79.4809 3.12347C85.1442 6.97182 91.4453 10.7303 97.0215 14.7028C98.5027 15.8201 99.5028 15.9724 100.81 17.4621C103.598 20.4415 103.859 23.1063 100.81 25.3408C96.7149 28.3202 92.0274 32.4206 87.8452 35.1516C86.1026 36.393 84.2729 37.6344 82.4432 38.5034C81.3977 39 79.9138 39 79.0259 39C78.6773 35.5241 80.0908 34.7792 81.3106 33.9102C84.3601 31.5516 87.4967 29.317 90.5462 26.9584C91.5918 26.0894 92.1872 26.1367 93.2328 24.1505C91.9817 24.0011 91.2494 23.7294 89.681 23.6053C78.2686 23.6053 66.5273 24.1505 54.1638 24.1505C37.9962 24.1505 19.3452 24.8788 2.66379 24.1505C1.71343 24.109 0 22.5789 0 20.9729C0 19.5 0 19.5 0.887932 18.4737C9.44726 18.4737 19.9718 18.3398 28.5311 18.3398C46.6008 18.3398 63.7194 18.3398 81.7891 18.3398C81.7891 18.3398 91.9258 17.8345 93.2328 17.4621Z" fill="black"/>
</svg>
