<svg width="25" height="25" viewBox="0 0 25 25" fill="none" xmlns="http://www.w3.org/2000/svg">
<path d="M2.55589 16.9824L6.04839 16.5837C6.88714 16.4874 7.71214 16.7762 8.30339 17.3674L10.8334 19.8974C14.7246 17.9174 17.9146 14.7412 19.8946 10.8362L17.3509 8.29242C16.7596 7.70117 16.4709 6.87617 16.5671 6.03742L16.9659 2.57242C17.1309 1.18367 18.2996 0.138672 19.7021 0.138672H22.0809C23.6346 0.138672 24.9271 1.43117 24.8309 2.98492C24.1021 14.7274 14.7109 24.1049 2.98214 24.8337C1.42839 24.9299 0.135889 23.6374 0.135889 22.0837V19.7049C0.122139 18.3162 1.16714 17.1474 2.55589 16.9824Z" fill="#65BA34"/>
</svg>
