<svg width="17" height="17" viewBox="0 0 17 17" fill="none" xmlns="http://www.w3.org/2000/svg">
<path d="M2.04784 11.661L4.3341 11.4C4.88316 11.337 5.42323 11.526 5.81027 11.9131L7.46646 13.5692C10.0137 12.2731 12.102 10.1939 13.3981 7.63757L11.7329 5.97237C11.3459 5.58533 11.1569 5.04527 11.2199 4.49621L11.4809 2.22795C11.5889 1.31884 12.354 0.634766 13.2721 0.634766H14.8293C15.8464 0.634766 16.6925 1.48086 16.6295 2.49798C16.1525 10.1849 10.0047 16.3236 2.32687 16.8006C1.30976 16.8636 0.463659 16.0175 0.463659 15.0004V13.4432C0.454659 12.5341 1.13874 11.769 2.04784 11.661Z" fill="white"/>
</svg>
