<svg width="36" height="37" viewBox="0 0 36 37" fill="none" xmlns="http://www.w3.org/2000/svg">
<path d="M3.52729 25.2315L8.61754 24.6342C9.84 24.49 11.0424 24.9225 11.9042 25.8082L15.5916 29.5981C21.263 26.6321 25.9123 21.8741 28.7982 16.0246L25.0907 12.2141C24.229 11.3284 23.8081 10.0926 23.9484 8.83617L24.5296 3.64569C24.7701 1.56538 26.4735 0 28.5176 0H31.9846C34.2491 0 36.1329 1.93613 35.9926 4.2636C34.9305 21.8535 21.2429 35.9008 4.14854 36.9924C1.88398 37.1366 0.00019455 35.2005 0.00019455 32.873V29.3097C-0.0198441 27.2294 1.50322 25.4786 3.52729 25.2315Z" fill="#2987D7"/>
</svg>
