<svg width="25" height="25" viewBox="0 0 25 25" fill="none" xmlns="http://www.w3.org/2000/svg">
<path d="M3.57143 0C1.60156 0 0 1.60156 0 3.57143V21.4286C0 23.3984 1.60156 25 3.57143 25H21.4286C23.3984 25 25 23.3984 25 21.4286V3.57143C25 1.60156 23.3984 0 21.4286 0H3.57143ZM20.1507 4.6875L14.3583 11.3058L21.1719 20.3125H15.8371L11.6629 14.8493L6.88058 20.3125H4.22991L10.4241 13.231L3.88951 4.6875H9.35826L13.1362 9.68192L17.5 4.6875H20.1507ZM18.0413 18.7277L8.56027 6.18862H6.98103L16.5681 18.7277H18.0357H18.0413Z" fill="#2987D7"/>
</svg>
