<svg width="36" height="50" viewBox="0 0 36 50" fill="none" xmlns="http://www.w3.org/2000/svg">
<path d="M18 50C18 50 36 32.2313 36 18.75C36 13.7772 34.1036 9.00805 30.7279 5.49175C27.3523 1.97544 22.7739 0 18 0C13.2261 0 8.64773 1.97544 5.27208 5.49175C1.89642 9.00805 7.11366e-08 13.7772 0 18.75C0 32.2313 18 50 18 50ZM18 28.125C15.6131 28.125 13.3239 27.1373 11.636 25.3791C9.94821 23.621 9 21.2364 9 18.75C9 16.2636 9.94821 13.879 11.636 12.1209C13.3239 10.3627 15.6131 9.375 18 9.375C20.3869 9.375 22.6761 10.3627 24.364 12.1209C26.0518 13.879 27 16.2636 27 18.75C27 21.2364 26.0518 23.621 24.364 25.3791C22.6761 27.1373 20.3869 28.125 18 28.125Z" fill="#2987D7"/>
</svg>
