<svg width="25" height="25" viewBox="0 0 25 25" fill="none" xmlns="http://www.w3.org/2000/svg">
<path d="M12.5 9.4C11.8869 9.4 11.2875 9.58181 10.7777 9.92244C10.2679 10.2631 9.8706 10.7472 9.63597 11.3137C9.40134 11.8801 9.33995 12.5034 9.45957 13.1048C9.57918 13.7061 9.87443 14.2585 10.308 14.692C10.7415 15.1256 11.2939 15.4208 11.8952 15.5404C12.4966 15.66 13.1199 15.5987 13.6863 15.364C14.2528 15.1294 14.7369 14.7321 15.0776 14.2223C15.4182 13.7125 15.6 13.1131 15.6 12.5C15.6 12.0929 15.5198 11.6898 15.364 11.3137C15.2082 10.9376 14.9799 10.5958 14.692 10.308C14.4042 10.0201 14.0624 9.79176 13.6863 9.63597C13.3102 9.48018 12.9071 9.4 12.5 9.4ZM24.9125 6.3375C24.9067 5.37212 24.7289 4.4155 24.3875 3.5125C24.1366 2.85157 23.7484 2.25137 23.2485 1.75148C22.7486 1.2516 22.1484 0.863397 21.4875 0.6125C20.5845 0.271059 19.6279 0.0932799 18.6625 0.0874999C17.05 -8.3819e-08 16.575 0 12.5 0C8.425 0 7.95 -8.3819e-08 6.3375 0.0874999C5.37212 0.0932799 4.4155 0.271059 3.5125 0.6125C2.85157 0.863397 2.25137 1.2516 1.75148 1.75148C1.2516 2.25137 0.863397 2.85157 0.6125 3.5125C0.271059 4.4155 0.0932799 5.37212 0.0874999 6.3375C-8.3819e-08 7.95 0 8.425 0 12.5C0 16.575 -8.3819e-08 17.05 0.0874999 18.6625C0.101912 19.6311 0.279396 20.5904 0.6125 21.5C0.860881 22.1586 1.24894 22.7556 1.75 23.25C2.248 23.7526 2.84942 24.1407 3.5125 24.3875C4.4155 24.7289 5.37212 24.9067 6.3375 24.9125C7.95 25 8.425 25 12.5 25C16.575 25 17.05 25 18.6625 24.9125C19.6279 24.9067 20.5845 24.7289 21.4875 24.3875C22.1506 24.1407 22.752 23.7526 23.25 23.25C23.7511 22.7556 24.1391 22.1586 24.3875 21.5C24.7278 20.5924 24.9056 19.6318 24.9125 18.6625C25 17.05 25 16.575 25 12.5C25 8.425 25 7.95 24.9125 6.3375ZM21.7375 16.3375C21.698 17.109 21.5334 17.8689 21.25 18.5875C21.0073 19.1871 20.6466 19.7318 20.1892 20.1892C19.7318 20.6466 19.1871 21.0073 18.5875 21.25C17.8621 21.5176 17.0979 21.6654 16.325 21.6875H8.675C7.90209 21.6654 7.13793 21.5176 6.4125 21.25C5.79243 21.02 5.23257 20.6525 4.775 20.175C4.32177 19.7268 3.97194 19.185 3.75 18.5875C3.48218 17.8626 3.3385 17.0977 3.325 16.325V8.675C3.3385 7.90231 3.48218 7.13742 3.75 6.4125C3.97996 5.79243 4.34751 5.23257 4.825 4.775C5.27566 4.32483 5.81675 3.97546 6.4125 3.75C7.13793 3.48237 7.90209 3.3346 8.675 3.3125H16.325C17.0979 3.3346 17.8621 3.48237 18.5875 3.75C19.2076 3.97996 19.7674 4.34751 20.225 4.825C20.6782 5.27318 21.0281 5.81498 21.25 6.4125C21.5176 7.13793 21.6654 7.90209 21.6875 8.675V12.5C21.6875 15.075 21.775 15.3375 21.7375 16.325V16.3375ZM19.7375 7.0375C19.5887 6.63373 19.354 6.26705 19.0497 5.96277C18.7454 5.65848 18.3788 5.42383 17.975 5.275C17.4206 5.08283 16.8367 4.98974 16.25 5H8.75C8.16033 5.00576 7.57634 5.11579 7.025 5.325C6.62741 5.46707 6.26462 5.69214 5.96073 5.98525C5.65684 6.27836 5.41883 6.6328 5.2625 7.025C5.08163 7.58186 4.99296 8.16454 5 8.75V16.25C5.01308 16.8389 5.12287 17.4217 5.325 17.975C5.47383 18.3788 5.70848 18.7454 6.01277 19.0497C6.31705 19.354 6.68373 19.5887 7.0875 19.7375C7.62101 19.933 8.18214 20.0427 8.75 20.0625H16.25C16.8397 20.0567 17.4237 19.9467 17.975 19.7375C18.3788 19.5887 18.7454 19.354 19.0497 19.0497C19.354 18.7454 19.5887 18.3788 19.7375 17.975C19.9467 17.4237 20.0567 16.8397 20.0625 16.25V8.75C20.0623 8.1598 19.9521 7.57482 19.7375 7.025V7.0375ZM12.5 17.275C11.8735 17.275 11.2532 17.1514 10.6746 16.9113C10.0959 16.6712 9.57038 16.3192 9.12798 15.8757C8.68557 15.4321 8.33503 14.9056 8.09643 14.3264C7.85783 13.7471 7.73586 13.1265 7.7375 12.5C7.7375 11.5551 8.01787 10.6314 8.54311 9.84586C9.06835 9.06034 9.81484 8.44833 10.6881 8.08729C11.5613 7.72625 12.5221 7.63243 13.4487 7.81769C14.3753 8.00295 15.2261 8.45896 15.8934 9.12801C16.5607 9.79706 17.0144 10.649 17.1973 11.5761C17.3801 12.5032 17.2838 13.4637 16.9204 14.336C16.5571 15.2083 15.9431 15.9532 15.1562 16.4764C14.3694 16.9995 13.4449 17.2775 12.5 17.275ZM17.5 8.6625C17.2237 8.63325 16.968 8.50278 16.7821 8.29621C16.5963 8.08965 16.4934 7.82162 16.4934 7.54375C16.4934 7.26588 16.5963 6.99785 16.7821 6.79129C16.968 6.58472 17.2237 6.45425 17.5 6.425C17.7763 6.45425 18.032 6.58472 18.2179 6.79129C18.4037 6.99785 18.5066 7.26588 18.5066 7.54375C18.5066 7.82162 18.4037 8.08965 18.2179 8.29621C18.032 8.50278 17.7763 8.63325 17.5 8.6625Z" fill="#2987D7"/>
</svg>
