<svg width="30" height="31" viewBox="0 0 30 31" fill="none" xmlns="http://www.w3.org/2000/svg">
<path d="M15 0.438965C6.71371 0.438965 0 7.15267 0 15.439C0 23.7253 6.71371 30.439 15 30.439C23.2863 30.439 30 23.7253 30 15.439C30 7.15267 23.2863 0.438965 15 0.438965ZM22.3548 19.3765C22.6391 19.6607 22.6391 20.1204 22.3548 20.4047L19.9597 22.7938C19.6754 23.0781 19.2157 23.0781 18.9315 22.7938L15 18.8261L11.0625 22.7938C10.7782 23.0781 10.3185 23.0781 10.0343 22.7938L7.64516 20.3986C7.36089 20.1144 7.36089 19.6547 7.64516 19.3704L11.6129 15.439L7.64516 11.5015C7.36089 11.2172 7.36089 10.7575 7.64516 10.4732L10.0403 8.07808C10.3246 7.7938 10.7843 7.7938 11.0685 8.07808L15 12.0519L18.9375 8.08413C19.2218 7.79985 19.6814 7.79985 19.9657 8.08413L22.3609 10.4793C22.6452 10.7636 22.6452 11.2232 22.3609 11.5075L18.3871 15.439L22.3548 19.3765Z" fill="#EF1818"/>
</svg>
