<svg width="50" height="50" viewBox="0 0 50 50" fill="none" xmlns="http://www.w3.org/2000/svg">
<path d="M35.8125 0.45625C35.5197 0.16416 35.123 8.78718e-05 34.7094 0L15.2906 0C14.877 8.78718e-05 14.4803 0.16416 14.1875 0.45625L0.45625 14.1875C0.16416 14.4803 8.78718e-05 14.877 0 15.2906L0 34.7094C8.78718e-05 35.123 0.16416 35.5197 0.45625 35.8125L14.1875 49.5438C14.4803 49.8358 14.877 49.9999 15.2906 50H34.7094C35.123 49.9999 35.5197 49.8358 35.8125 49.5438L49.5438 35.8125C49.8358 35.5197 49.9999 35.123 50 34.7094V15.2906C49.9999 14.877 49.8358 14.4803 49.5438 14.1875L35.8125 0.45625ZM25 12.5C26.6719 12.5 27.9812 13.9438 27.8125 15.6094L26.7188 26.5688C26.682 26.9993 26.485 27.4004 26.1667 27.6926C25.8485 27.9849 25.4321 28.147 25 28.147C24.5679 28.147 24.1515 27.9849 23.8333 27.6926C23.515 27.4004 23.318 26.9993 23.2812 26.5688L22.1875 15.6094C22.1482 15.2164 22.1917 14.8195 22.3151 14.4443C22.4386 14.0691 22.6392 13.7239 22.9042 13.431C23.1692 13.138 23.4925 12.9039 23.8535 12.7435C24.2145 12.5832 24.605 12.5002 25 12.5ZM25.0063 31.25C25.8351 31.25 26.6299 31.5792 27.216 32.1653C27.802 32.7513 28.1313 33.5462 28.1313 34.375C28.1313 35.2038 27.802 35.9987 27.216 36.5847C26.6299 37.1708 25.8351 37.5 25.0063 37.5C24.1774 37.5 23.3826 37.1708 22.7965 36.5847C22.2105 35.9987 21.8813 35.2038 21.8813 34.375C21.8813 33.5462 22.2105 32.7513 22.7965 32.1653C23.3826 31.5792 24.1774 31.25 25.0063 31.25Z" fill="#E63946"/>
</svg>
