<svg width="50" height="50" viewBox="0 0 50 50" fill="none" xmlns="http://www.w3.org/2000/svg">
<path d="M28.0629 2.02628C27.7536 1.4105 27.3076 0.898896 26.77 0.543121C26.2324 0.187346 25.6221 0 25.0009 0C24.3797 0 23.7694 0.187346 23.2318 0.543121C22.6942 0.898896 22.2482 1.4105 21.9389 2.02628L0.514602 43.6899C-0.913271 46.4682 0.798927 50 3.57656 50H46.4221C49.1998 50 50.9151 46.4646 49.4841 43.6899L28.0629 2.02628ZM24.9947 14.2893C26.6662 14.2893 27.9754 15.9392 27.8067 17.8425L26.7131 30.3663C26.6764 30.8583 26.4794 31.3166 26.1612 31.6506C25.843 31.9845 25.4267 32.1699 24.9947 32.1699C24.5626 32.1699 24.1463 31.9845 23.8281 31.6506C23.5099 31.3166 23.313 30.8583 23.2762 30.3663L22.1827 17.8425C22.1434 17.3934 22.1869 16.9399 22.3103 16.5111C22.4337 16.0824 22.6343 15.6879 22.8992 15.3532C23.1641 15.0185 23.4875 14.7508 23.8484 14.5676C24.2093 14.3844 24.5998 14.2896 24.9947 14.2893ZM25.0009 35.7157C25.8296 35.7157 26.6243 36.092 27.2102 36.7617C27.7962 37.4314 28.1254 38.3397 28.1254 39.2868C28.1254 40.2339 27.7962 41.1422 27.2102 41.8119C26.6243 42.4816 25.8296 42.8579 25.0009 42.8579C24.1723 42.8579 23.3775 42.4816 22.7916 41.8119C22.2056 41.1422 21.8765 40.2339 21.8765 39.2868C21.8765 38.3397 22.2056 37.4314 22.7916 36.7617C23.3775 36.092 24.1723 35.7157 25.0009 35.7157Z" fill="#FFC107"/>
</svg>
