<svg width="25" height="25" viewBox="0 0 25 25" fill="none" xmlns="http://www.w3.org/2000/svg">
<path d="M12.5 0.0195312C5.60316 0.0195312 0 5.62269 0 12.5195C0 18.7804 4.61792 23.9618 10.6323 24.8653L11.2848 24.964V15.1141H8.33185V13.1143H11.2848V10.4588C11.2848 8.82349 11.6773 7.74647 12.3269 7.07076C12.9765 6.39504 13.9364 6.05424 15.2721 6.05424C16.3402 6.05424 16.7557 6.11896 17.1509 6.16744V7.80429H15.7604C14.9714 7.80429 14.3241 8.24448 13.9881 8.83079C13.6522 9.4171 13.5476 10.1172 13.5476 10.8305V13.1132H17.0266L16.717 15.113H13.5476V24.9796L14.1923 24.8919C20.2922 24.0646 25 18.8416 25 12.5195C25 5.62269 19.3968 0.0195312 12.5 0.0195312ZM12.5 1.15589C18.7827 1.15589 23.8636 6.23683 23.8636 12.5195C23.8636 18.0478 19.9067 22.5944 14.6839 23.6179V16.2493H17.6913L18.3516 11.9769H14.6839V10.8305C14.6839 10.241 14.7918 9.71288 14.9736 9.39564C15.1554 9.0784 15.3306 8.94065 15.7604 8.94065H18.2872V5.13872L17.7945 5.07213C17.4537 5.02602 16.6757 4.91788 15.2721 4.91788C13.7363 4.91788 12.4179 5.33626 11.5079 6.28285C10.5979 7.22943 10.1485 8.63892 10.1485 10.4588V11.978H7.19549V16.2504H10.1485V23.5824C5.00966 22.4939 1.13636 17.988 1.13636 12.5195C1.13636 6.23683 6.21729 1.15589 12.5 1.15589Z" fill="white"/>
</svg>
