<svg width="25" height="25" viewBox="0 0 25 25" fill="none" xmlns="http://www.w3.org/2000/svg">
<path d="M7.38672 0.5H17.6133C21.4096 0.5 24.5 3.59041 24.5 7.38672V17.6133C24.5 21.4096 21.4096 24.5 17.6133 24.5H7.38672C3.59041 24.5 0.5 21.4096 0.5 17.6133V7.38672C0.5 3.59041 3.59041 0.5 7.38672 0.5ZM7.38672 0.636719C3.65235 0.636719 0.636719 3.65235 0.636719 7.38672V17.6133C0.636719 21.3477 3.65235 24.3633 7.38672 24.3633H17.6133C21.3477 24.3633 24.3633 21.3477 24.3633 17.6133V7.38672C24.3633 3.65235 21.3477 0.636719 17.6133 0.636719H7.38672ZM12.5 6.75C15.6689 6.75 18.25 9.33109 18.25 12.5C18.25 15.6689 15.6689 18.25 12.5 18.25C9.33109 18.25 6.75 15.6689 6.75 12.5C6.75 9.33109 9.33109 6.75 12.5 6.75ZM12.5 6.88672C9.39294 6.88672 6.88672 9.39294 6.88672 12.5C6.88672 15.6071 9.39294 18.1133 12.5 18.1133C15.6071 18.1133 18.1133 15.6071 18.1133 12.5C18.1133 9.39294 15.6071 6.88672 12.5 6.88672ZM19.3184 5.0459C19.4448 5.04593 19.5672 5.08328 19.6709 5.15234L19.7686 5.23145C19.8879 5.35075 19.9541 5.51293 19.9541 5.68164C19.9541 5.8083 19.9169 5.93133 19.8477 6.03516L19.7686 6.13184C19.6493 6.25114 19.4871 6.31831 19.3184 6.31836C19.1496 6.31836 18.9875 6.25118 18.8682 6.13184C18.7488 6.0125 18.6816 5.85042 18.6816 5.68164C18.6817 5.51293 18.7489 5.35074 18.8682 5.23145C18.9875 5.11222 19.1497 5.0459 19.3184 5.0459Z" fill="white" stroke="white"/>
</svg>
