<svg width="25" height="25" viewBox="0 0 25 25" fill="none" xmlns="http://www.w3.org/2000/svg">
<path d="M2.97619 0C1.33957 0 0 1.33957 0 2.97619V22.0238C0 23.6604 1.33957 25 2.97619 25H22.0238C23.6604 25 25 23.6604 25 22.0238V2.97619C25 1.33957 23.6604 0 22.0238 0H2.97619ZM2.97619 1.19048H22.0238C23.017 1.19048 23.8095 1.98305 23.8095 2.97619V22.0238C23.8095 23.017 23.017 23.8095 22.0238 23.8095H2.97619C1.98305 23.8095 1.19048 23.017 1.19048 22.0238V2.97619C1.19048 1.98305 1.98305 1.19048 2.97619 1.19048ZM5.95238 4.17364C5.30046 4.17364 4.71382 4.3685 4.27944 4.734C3.84505 5.09951 3.5784 5.64554 3.5784 6.23024C3.5784 7.34165 4.54243 8.2081 5.76869 8.29381L5.77102 8.29497C5.82945 8.31488 5.89065 8.32548 5.95238 8.32636C7.30536 8.32636 8.32636 7.37862 8.32636 6.23024C8.32625 6.21976 8.32586 6.2093 8.3252 6.19885C8.26463 5.06776 7.25622 4.17364 5.95238 4.17364ZM5.95238 5.35017C6.78109 5.35017 7.10832 5.72026 7.14402 6.24535C7.13679 6.75502 6.82148 7.14983 5.95238 7.14983C5.12773 7.14983 4.75493 6.72751 4.75493 6.23024C4.75493 5.9816 4.84566 5.79422 5.03627 5.63384C5.22689 5.47345 5.53287 5.35017 5.95238 5.35017ZM4.16667 8.92857C4.0088 8.92859 3.85741 8.99131 3.74579 9.10293C3.63416 9.21456 3.57144 9.36595 3.57143 9.52381V20.8333C3.57144 20.9912 3.63416 21.1426 3.74579 21.2542C3.85741 21.3658 4.0088 21.4286 4.16667 21.4286H7.7381C7.89596 21.4286 8.04735 21.3658 8.15897 21.2542C8.2706 21.1426 8.33332 20.9912 8.33333 20.8333V17.3421V9.52381C8.33332 9.36595 8.2706 9.21456 8.15897 9.10293C8.04735 8.99131 7.89596 8.92859 7.7381 8.92857H4.16667ZM9.52381 8.92857C9.36595 8.92859 9.21456 8.99131 9.10293 9.10293C8.99131 9.21456 8.92859 9.36595 8.92857 9.52381V20.8333C8.92859 20.9912 8.99131 21.1426 9.10293 21.2542C9.21456 21.3658 9.36595 21.4286 9.52381 21.4286H13.0952C13.2531 21.4286 13.4045 21.3658 13.5161 21.2542C13.6277 21.1426 13.6905 20.9912 13.6905 20.8333V14.881C13.6905 14.3871 13.8252 13.8959 14.0625 13.5742C14.2998 13.2526 14.5991 13.0596 15.1681 13.0697C15.7549 13.0798 16.0655 13.2808 16.3005 13.5963C16.5354 13.9119 16.6667 14.3849 16.6667 14.881V20.8333C16.6667 20.9912 16.7294 21.1426 16.841 21.2542C16.9527 21.3658 17.104 21.4286 17.2619 21.4286H20.8333C20.9912 21.4286 21.1426 21.3658 21.2542 21.2542C21.3658 21.1426 21.4286 20.9912 21.4286 20.8333V14.4415C21.4286 12.6787 20.9064 11.2823 20.0114 10.3376C19.1164 9.39288 17.8715 8.92857 16.5551 8.92857C15.3039 8.92857 14.3517 9.34815 13.6905 9.77609V9.52381C13.6905 9.36595 13.6277 9.21456 13.5161 9.10293C13.4045 8.99131 13.2531 8.92859 13.0952 8.92857H9.52381ZM4.7619 10.119H7.14286V17.3421V20.2381H4.7619V10.119ZM10.119 10.119H12.5V11.0479C12.5 11.1728 12.5393 11.2944 12.6122 11.3957C12.6852 11.497 12.7881 11.5727 12.9065 11.6123C13.0249 11.6519 13.1527 11.6533 13.2719 11.6163C13.3911 11.5793 13.4956 11.5057 13.5707 11.406C13.5707 11.406 14.5055 10.119 16.5551 10.119C17.5987 10.119 18.4937 10.4658 19.1476 11.1561C19.8015 11.8463 20.2381 12.9097 20.2381 14.4415V20.2381H17.8571V14.881C17.8571 14.1865 17.6908 13.4685 17.2561 12.8848C16.8214 12.3011 16.0904 11.8947 15.189 11.8792C14.2831 11.8631 13.5402 12.278 13.1045 12.8685C12.6689 13.4591 12.5 14.1843 12.5 14.881V20.2381H10.119V10.119Z" fill="white"/>
</svg>
