<svg width="580" height="329" viewBox="0 0 580 329" fill="none" xmlns="http://www.w3.org/2000/svg">
<path d="M449.03 284.862C448.099 253.569 438.074 224.523 421.502 200.292L527.53 123.257C539.275 139.966 549.215 157.886 557.253 176.88C571.76 211.17 579.401 247.479 580 284.869H449.037L449.03 284.862Z" fill="#1DA600"/>
<path d="M53.2846 123.251L159.312 200.285C142.741 224.524 132.709 253.569 131.784 284.856H0.821056C1.42034 247.466 9.06126 211.163 23.5679 176.867C31.5996 157.873 41.5464 139.953 53.2911 123.244L53.2846 123.251Z" fill="#FB2415"/>
<path d="M16.504 315H13.768L5.536 302.544V315H2.8V298.296H5.536L13.768 310.728V298.296H16.504V315ZM26.5049 315.168C24.9529 315.168 23.5209 314.808 22.2089 314.088C20.9129 313.352 19.8809 312.336 19.1129 311.04C18.3609 309.728 17.9849 308.256 17.9849 306.624C17.9849 304.992 18.3609 303.528 19.1129 302.232C19.8809 300.936 20.9129 299.928 22.2089 299.208C23.5209 298.472 24.9529 298.104 26.5049 298.104C28.0729 298.104 29.5049 298.472 30.8009 299.208C32.1129 299.928 33.1449 300.936 33.8969 302.232C34.6489 303.528 35.0249 304.992 35.0249 306.624C35.0249 308.256 34.6489 309.728 33.8969 311.04C33.1449 312.336 32.1129 313.352 30.8009 314.088C29.5049 314.808 28.0729 315.168 26.5049 315.168ZM26.5049 312.792C27.6089 312.792 28.5929 312.544 29.4569 312.048C30.3209 311.536 30.9929 310.816 31.4729 309.888C31.9689 308.944 32.2169 307.856 32.2169 306.624C32.2169 305.392 31.9689 304.312 31.4729 303.384C30.9929 302.456 30.3209 301.744 29.4569 301.248C28.5929 300.752 27.6089 300.504 26.5049 300.504C25.4009 300.504 24.4169 300.752 23.5529 301.248C22.6889 301.744 22.0089 302.456 21.5129 303.384C21.0329 304.312 20.7929 305.392 20.7929 306.624C20.7929 307.856 21.0329 308.944 21.5129 309.888C22.0089 310.816 22.6889 311.536 23.5529 312.048C24.4169 312.544 25.4009 312.792 26.5049 312.792ZM47.2932 298.32V300.552H42.8532V315H40.1172V300.552H35.6532V298.32H47.2932ZM62.5624 315L58.7224 308.328H56.6344V315H53.8984V298.32H59.6584C60.9384 298.32 62.0184 298.544 62.8984 298.992C63.7944 299.44 64.4584 300.04 64.8904 300.792C65.3384 301.544 65.5624 302.384 65.5624 303.312C65.5624 304.4 65.2424 305.392 64.6024 306.288C63.9784 307.168 63.0104 307.768 61.6984 308.088L65.8264 315H62.5624ZM56.6344 306.144H59.6584C60.6824 306.144 61.4504 305.888 61.9624 305.376C62.4904 304.864 62.7544 304.176 62.7544 303.312C62.7544 302.448 62.4984 301.776 61.9864 301.296C61.4744 300.8 60.6984 300.552 59.6584 300.552H56.6344V306.144ZM70.5985 300.528V305.424H76.3585V307.656H70.5985V312.768H77.0785V315H67.8625V298.296H77.0785V300.528H70.5985ZM89.3044 311.592H82.3204L81.1204 315H78.2644L84.2404 298.296H87.4084L93.3844 315H90.5044L89.3044 311.592ZM88.5364 309.36L85.8244 301.608L83.0884 309.36H88.5364ZM100.231 298.32C102.007 298.32 103.559 298.664 104.887 299.352C106.231 300.024 107.263 301 107.983 302.28C108.719 303.544 109.087 305.024 109.087 306.72C109.087 308.416 108.719 309.888 107.983 311.136C107.263 312.384 106.231 313.344 104.887 314.016C103.559 314.672 102.007 315 100.231 315H94.7828V298.32H100.231ZM100.231 312.768C102.183 312.768 103.679 312.24 104.719 311.184C105.759 310.128 106.279 308.64 106.279 306.72C106.279 304.784 105.759 303.272 104.719 302.184C103.679 301.096 102.183 300.552 100.231 300.552H97.5188V312.768H100.231ZM122.958 298.32L117.438 308.952V315H114.702V308.952L109.158 298.32H112.206L116.07 306.504L119.934 298.32H122.958Z" fill="#FB2415"/>
<path d="M465.176 298.32L458.912 315H455.744L449.456 298.32H452.384L457.328 312.192L462.296 298.32H465.176ZM469 300.528V305.424H474.76V307.656H469V312.768H475.48V315H466.264V298.296H475.48V300.528H469ZM486.314 315L482.474 308.328H480.386V315H477.65V298.32H483.41C484.69 298.32 485.77 298.544 486.65 298.992C487.546 299.44 488.21 300.04 488.642 300.792C489.09 301.544 489.314 302.384 489.314 303.312C489.314 304.4 488.994 305.392 488.354 306.288C487.73 307.168 486.762 307.768 485.45 308.088L489.578 315H486.314ZM480.386 306.144H483.41C484.434 306.144 485.202 305.888 485.714 305.376C486.242 304.864 486.506 304.176 486.506 303.312C486.506 302.448 486.25 301.776 485.738 301.296C485.226 300.8 484.45 300.552 483.41 300.552H480.386V306.144ZM503.974 298.32L498.454 308.952V315H495.718V308.952L490.174 298.32H493.222L497.086 306.504L500.95 298.32H503.974ZM518.644 315L514.804 308.328H512.716V315H509.98V298.32H515.74C517.02 298.32 518.1 298.544 518.98 298.992C519.876 299.44 520.54 300.04 520.972 300.792C521.42 301.544 521.644 302.384 521.644 303.312C521.644 304.4 521.324 305.392 520.684 306.288C520.06 307.168 519.092 307.768 517.78 308.088L521.908 315H518.644ZM512.716 306.144H515.74C516.764 306.144 517.532 305.888 518.044 305.376C518.572 304.864 518.836 304.176 518.836 303.312C518.836 302.448 518.58 301.776 518.068 301.296C517.556 300.8 516.78 300.552 515.74 300.552H512.716V306.144ZM526.68 300.528V305.424H532.44V307.656H526.68V312.768H533.16V315H523.944V298.296H533.16V300.528H526.68ZM545.386 311.592H538.402L537.202 315H534.346L540.322 298.296H543.49L549.466 315H546.586L545.386 311.592ZM544.618 309.36L541.906 301.608L539.17 309.36H544.618ZM556.312 298.32C558.088 298.32 559.64 298.664 560.968 299.352C562.312 300.024 563.344 301 564.064 302.28C564.8 303.544 565.168 305.024 565.168 306.72C565.168 308.416 564.8 309.888 564.064 311.136C563.344 312.384 562.312 313.344 560.968 314.016C559.64 314.672 558.088 315 556.312 315H550.864V298.32H556.312ZM556.312 312.768C558.264 312.768 559.76 312.24 560.8 311.184C561.84 310.128 562.36 308.64 562.36 306.72C562.36 304.784 561.84 303.272 560.8 302.184C559.76 301.096 558.264 300.552 556.312 300.552H553.6V312.768H556.312ZM579.04 298.32L573.52 308.952V315H570.784V308.952L565.24 298.32H568.288L572.152 306.504L576.016 298.32H579.04Z" fill="#1DA600"/>
<path d="M196.357 15.6271L236.848 140.239C208.16 150.558 183.283 168.907 164.933 192.573L58.8989 115.532C67.0284 104.745 75.9395 94.4918 85.6062 84.8251C112.183 58.2481 143.151 37.3708 177.649 22.7795C183.824 20.1674 190.064 17.7832 196.357 15.6206V15.6271Z" fill="#FF7300"/>
<path d="M415.88 192.573C397.53 168.907 372.653 150.551 343.965 140.239L384.456 15.6272C390.755 17.7898 396.996 20.1739 403.164 22.786C437.662 37.3773 468.63 58.2546 495.207 84.8316C504.874 94.4984 513.785 104.751 521.914 115.532L415.88 192.573Z" fill="#BAD600"/>
<path d="M334.884 137.282C320.762 133.152 305.838 130.937 290.4 130.937C274.962 130.937 260.039 133.159 245.916 137.282L205.425 12.6697C232.83 4.25363 261.302 0 290.4 0C319.498 0 347.964 4.25363 375.375 12.6697L334.884 137.282Z" fill="#FFAF00"/>
</svg>
