<svg width="586" height="339" viewBox="0 0 586 339" fill="none" xmlns="http://www.w3.org/2000/svg">
<path d="M130.97 284.862C131.901 253.569 141.926 224.523 158.498 200.292L52.47 123.257C40.7254 139.966 30.785 157.886 22.7468 176.88C8.24017 211.17 0.599286 247.479 0 284.869H130.963L130.97 284.862Z" fill="#1DA600"/>
<path d="M526.715 123.251L420.688 200.285C437.259 224.523 447.291 253.569 448.216 284.856H579.179C578.58 247.466 570.939 211.163 556.432 176.867C548.4 157.872 538.454 139.952 526.709 123.244L526.715 123.251Z" fill="#FB2415"/>
<path d="M383.643 15.6271L343.152 140.239C371.84 150.558 396.717 168.907 415.067 192.573L521.101 115.532C512.972 104.745 504.06 94.4918 494.394 84.8251C467.817 58.2481 436.849 37.3708 402.351 22.7795C396.176 20.1674 389.936 17.7832 383.643 15.6206V15.6271Z" fill="#FF7300"/>
<path d="M164.12 192.573C182.47 168.907 207.347 150.551 236.035 140.239L195.544 15.627C189.245 17.7896 183.004 20.1737 176.836 22.7858C142.338 37.3771 111.37 58.2544 84.7932 84.8314C75.1265 94.4981 66.2154 104.751 58.0859 115.532L164.12 192.573Z" fill="#BAD600"/>
<path d="M245.116 137.282C259.238 133.152 274.162 130.937 289.6 130.937C305.038 130.937 319.961 133.159 334.084 137.282L374.575 12.6697C347.17 4.25363 318.698 0 289.6 0C260.502 0 232.036 4.25363 204.625 12.6697L245.116 137.282Z" fill="#FFAF00"/>
<path d="M5.859 325.148H13.144V328H2.325V306.455H5.859V325.148ZM24.3764 328.217C22.3717 328.217 20.5221 327.752 18.8274 326.822C17.1534 325.871 15.8204 324.559 14.8284 322.885C13.8571 321.19 13.3714 319.289 13.3714 317.181C13.3714 315.073 13.8571 313.182 14.8284 311.508C15.8204 309.834 17.1534 308.532 18.8274 307.602C20.5221 306.651 22.3717 306.176 24.3764 306.176C26.4017 306.176 28.2514 306.651 29.9254 307.602C31.6201 308.532 32.9531 309.834 33.9244 311.508C34.8957 313.182 35.3814 315.073 35.3814 317.181C35.3814 319.289 34.8957 321.19 33.9244 322.885C32.9531 324.559 31.6201 325.871 29.9254 326.822C28.2514 327.752 26.4017 328.217 24.3764 328.217ZM24.3764 325.148C25.8024 325.148 27.0734 324.828 28.1894 324.187C29.3054 323.526 30.1734 322.596 30.7934 321.397C31.4341 320.178 31.7544 318.772 31.7544 317.181C31.7544 315.59 31.4341 314.195 30.7934 312.996C30.1734 311.797 29.3054 310.878 28.1894 310.237C27.0734 309.596 25.8024 309.276 24.3764 309.276C22.9504 309.276 21.6794 309.596 20.5634 310.237C19.4474 310.878 18.5691 311.797 17.9284 312.996C17.3084 314.195 16.9984 315.59 16.9984 317.181C16.9984 318.772 17.3084 320.178 17.9284 321.397C18.5691 322.596 19.4474 323.526 20.5634 324.187C21.6794 324.828 22.9504 325.148 24.3764 325.148ZM65.364 306.455L58.978 328H54.979L50.453 311.694L45.648 328L41.68 328.031L35.573 306.455H39.324L43.788 324.001L48.624 306.455H52.592L57.087 323.908L61.582 306.455H65.364ZM84.4224 328L79.4624 319.382H76.7654V328H73.2314V306.455H80.6714C82.3248 306.455 83.7198 306.744 84.8564 307.323C86.0138 307.902 86.8714 308.677 87.4294 309.648C88.0081 310.619 88.2974 311.704 88.2974 312.903C88.2974 314.308 87.8841 315.59 87.0574 316.747C86.2514 317.884 85.0011 318.659 83.3064 319.072L88.6384 328H84.4224ZM76.7654 316.561H80.6714C81.9941 316.561 82.9861 316.23 83.6474 315.569C84.3294 314.908 84.6704 314.019 84.6704 312.903C84.6704 311.787 84.3398 310.919 83.6784 310.299C83.0171 309.658 82.0148 309.338 80.6714 309.338H76.7654V316.561ZM94.8024 306.455V328H91.2684V306.455H94.8024ZM104.991 328.217C103.545 328.217 102.243 327.969 101.085 327.473C99.9279 326.956 99.0185 326.233 98.3572 325.303C97.6959 324.373 97.3652 323.288 97.3652 322.048H101.147C101.23 322.978 101.592 323.743 102.232 324.342C102.894 324.941 103.813 325.241 104.991 325.241C106.211 325.241 107.161 324.952 107.843 324.373C108.525 323.774 108.866 323.009 108.866 322.079C108.866 321.356 108.649 320.767 108.215 320.312C107.802 319.857 107.275 319.506 106.634 319.258C106.014 319.01 105.146 318.741 104.03 318.452C102.625 318.08 101.478 317.708 100.589 317.336C99.7212 316.943 98.9772 316.344 98.3572 315.538C97.7372 314.732 97.4272 313.657 97.4272 312.314C97.4272 311.074 97.7372 309.989 98.3572 309.059C98.9772 308.129 99.8452 307.416 100.961 306.92C102.077 306.424 103.369 306.176 104.836 306.176C106.924 306.176 108.629 306.703 109.951 307.757C111.295 308.79 112.039 310.216 112.183 312.035H108.277C108.215 311.25 107.843 310.578 107.161 310.02C106.479 309.462 105.58 309.183 104.464 309.183C103.452 309.183 102.625 309.441 101.984 309.958C101.344 310.475 101.023 311.219 101.023 312.19C101.023 312.851 101.22 313.399 101.612 313.833C102.026 314.246 102.542 314.577 103.162 314.825C103.782 315.073 104.63 315.342 105.704 315.631C107.13 316.024 108.288 316.416 109.176 316.809C110.086 317.202 110.85 317.811 111.47 318.638C112.111 319.444 112.431 320.529 112.431 321.893C112.431 322.988 112.132 324.022 111.532 324.993C110.954 325.964 110.096 326.75 108.959 327.349C107.843 327.928 106.521 328.217 104.991 328.217ZM126.924 328L118.585 318.359V328H115.051V306.455H118.585V316.282L126.955 306.455H131.388L122.026 317.243L131.543 328H126.924Z" fill="#1DA600"/>
<path d="M467.53 306.455V328H463.996V318.576H453.859V328H450.325V306.455H453.859V315.693H463.996V306.455H467.53ZM474.166 306.455V328H470.632V306.455H474.166ZM492.849 312.655C492.291 311.58 491.516 310.774 490.524 310.237C489.532 309.679 488.385 309.4 487.083 309.4C485.657 309.4 484.386 309.72 483.27 310.361C482.154 311.002 481.276 311.911 480.635 313.089C480.015 314.267 479.705 315.631 479.705 317.181C479.705 318.731 480.015 320.105 480.635 321.304C481.276 322.482 482.154 323.391 483.27 324.032C484.386 324.673 485.657 324.993 487.083 324.993C489.005 324.993 490.566 324.456 491.764 323.381C492.963 322.306 493.697 320.849 493.965 319.01H485.874V316.189H497.747V318.948C497.52 320.622 496.921 322.162 495.949 323.567C494.999 324.972 493.748 326.099 492.198 326.946C490.669 327.773 488.964 328.186 487.083 328.186C485.058 328.186 483.208 327.721 481.534 326.791C479.86 325.84 478.527 324.528 477.535 322.854C476.564 321.18 476.078 319.289 476.078 317.181C476.078 315.073 476.564 313.182 477.535 311.508C478.527 309.834 479.86 308.532 481.534 307.602C483.229 306.651 485.079 306.176 487.083 306.176C489.377 306.176 491.413 306.744 493.19 307.881C494.988 308.997 496.29 310.588 497.096 312.655H492.849ZM516.888 306.455V328H513.354V318.576H503.217V328H499.683V306.455H503.217V315.693H513.354V306.455H516.888ZM537.684 328L532.724 319.382H530.027V328H526.493V306.455H533.933C535.586 306.455 536.981 306.744 538.118 307.323C539.275 307.902 540.133 308.677 540.691 309.648C541.27 310.619 541.559 311.704 541.559 312.903C541.559 314.308 541.146 315.59 540.319 316.747C539.513 317.884 538.263 318.659 536.568 319.072L541.9 328H537.684ZM530.027 316.561H533.933C535.256 316.561 536.248 316.23 536.909 315.569C537.591 314.908 537.932 314.019 537.932 312.903C537.932 311.787 537.601 310.919 536.94 310.299C536.279 309.658 535.276 309.338 533.933 309.338H530.027V316.561ZM548.064 306.455V328H544.53V306.455H548.064ZM558.253 328.217C556.806 328.217 555.504 327.969 554.347 327.473C553.189 326.956 552.28 326.233 551.619 325.303C550.957 324.373 550.627 323.288 550.627 322.048H554.409C554.491 322.978 554.853 323.743 555.494 324.342C556.155 324.941 557.075 325.241 558.253 325.241C559.472 325.241 560.423 324.952 561.105 324.373C561.787 323.774 562.128 323.009 562.128 322.079C562.128 321.356 561.911 320.767 561.477 320.312C561.063 319.857 560.536 319.506 559.896 319.258C559.276 319.01 558.408 318.741 557.292 318.452C555.886 318.08 554.739 317.708 553.851 317.336C552.983 316.943 552.239 316.344 551.619 315.538C550.999 314.732 550.689 313.657 550.689 312.314C550.689 311.074 550.999 309.989 551.619 309.059C552.239 308.129 553.107 307.416 554.223 306.92C555.339 306.424 556.63 306.176 558.098 306.176C560.185 306.176 561.89 306.703 563.213 307.757C564.556 308.79 565.3 310.216 565.445 312.035H561.539C561.477 311.25 561.105 310.578 560.423 310.02C559.741 309.462 558.842 309.183 557.726 309.183C556.713 309.183 555.886 309.441 555.246 309.958C554.605 310.475 554.285 311.219 554.285 312.19C554.285 312.851 554.481 313.399 554.874 313.833C555.287 314.246 555.804 314.577 556.424 314.825C557.044 315.073 557.891 315.342 558.966 315.631C560.392 316.024 561.549 316.416 562.438 316.809C563.347 317.202 564.112 317.811 564.732 318.638C565.372 319.444 565.693 320.529 565.693 321.893C565.693 322.988 565.393 324.022 564.794 324.993C564.215 325.964 563.357 326.75 562.221 327.349C561.105 327.928 559.782 328.217 558.253 328.217ZM580.186 328L571.847 318.359V328H568.313V306.455H571.847V316.282L580.217 306.455H584.65L575.288 317.243L584.805 328H580.186Z" fill="#FB2415"/>
</svg>
