<svg width="29" height="29" viewBox="0 0 29 29" fill="none" xmlns="http://www.w3.org/2000/svg">
<path d="M10.7338 8.06795C10.5831 7.32436 10.5455 6.87821 10.7338 6.28333C10.7714 6.17179 10.8091 6.06026 10.8468 6.02308C10.8844 6.06026 10.8844 6.13462 10.9221 6.24615C11.0727 7.0641 11.0727 7.32436 10.8468 8.40256C10.7714 8.25385 10.7338 8.17949 10.7338 8.06795ZM11.3364 12.7526C11.2234 13.1244 11.0727 13.5333 10.9221 14.0538C10.5078 15.2808 10.3195 15.7641 10.2442 16.0244C10.1312 16.3962 10.1312 16.3962 9.86753 16.991L9.82987 17.0654C9.75454 17.2885 9.64156 17.5115 9.52857 17.7346C10.3571 17.4 10.9221 17.2141 11.8636 16.9167L12.3909 16.7308C12.7675 16.6192 13.1065 16.5077 13.3701 16.3962L13.7091 16.2846C13.4831 16.0244 13.2948 15.7269 13.0312 15.3923C12.3532 14.5 11.9013 13.7564 11.3364 12.7526ZM4.67013 22.2333C4.40649 22.9026 4.51948 22.9769 4.55714 23.0141C4.67013 23.0885 4.85844 23.1628 5.00909 23.0513C5.23506 22.8282 5.31039 22.6795 5.68701 21.9731C5.8 21.7872 5.91299 21.5269 6.06364 21.2667L6.17662 21.0436C5.4987 21.4154 4.78312 21.8615 4.67013 22.2333ZM18.6429 17.8462C18.7935 17.809 18.8688 17.7718 18.8688 17.7718V17.5115C18.8688 17.4744 18.7558 17.3256 18.3792 17.2513C17.8143 17.1397 17.4377 17.1397 17.0987 17.1397H16.7974C17.4377 17.6603 17.739 17.809 17.9273 17.8462C18.0026 17.8833 18.3416 17.8833 18.6429 17.8462ZM23.3506 16.1731V21.5269L15.8935 29H3.72857C1.65714 29 0 27.3269 0 25.2449V3.75513C0 1.67308 1.65714 0 3.72857 0H19.6221C21.5052 0 23.0117 1.37564 23.313 3.16026C19.6974 3.19744 16.7597 6.09744 16.7597 9.66667C16.7597 13.2731 19.6974 16.1731 23.3506 16.1731ZM21.5429 22.2705H17.739C17.0987 22.2705 16.6091 22.7538 16.6091 23.3859V27.2154L21.5429 22.2705ZM18.6052 15.7641C17.9273 15.6526 17.4753 15.6526 17.061 15.6526C16.6468 15.6526 16.3078 15.6897 15.7805 15.7641C15.6299 15.8013 15.4416 15.8385 15.3286 15.8385C14.9519 15.4667 14.6883 15.0949 14.274 14.5372C13.4831 13.4218 12.9935 12.641 12.2026 11.2654C12.0896 11.0795 11.9766 10.8564 11.8636 10.6705C11.939 10.3359 12.0143 9.9641 12.0896 9.51795L12.2026 8.99744C12.5039 7.58462 12.5792 7.10128 12.3532 5.94872C12.0896 4.68462 11.2234 4.38718 10.7714 4.42436C10.5455 4.42436 9.64156 4.57308 9.26493 5.87436C9.0013 6.76667 9.03896 7.4359 9.26493 8.36539C9.41558 9.03462 9.75455 9.85256 10.3195 10.8564C10.1312 11.6372 9.90519 12.3436 9.49091 13.5333C9.07662 14.7603 8.88831 15.2436 8.81299 15.541C8.7 15.8756 8.7 15.8756 8.47403 16.4333L8.43636 16.5077C8.17273 17.2141 7.72078 18.0692 7.41948 18.6269C6.96753 18.85 6.51558 19.0731 5.87532 19.4449C4.51948 20.2256 3.57792 20.7833 3.23896 21.6756C3.05065 22.159 2.5987 23.3487 3.57792 24.1295C3.91688 24.4269 4.36883 24.5756 4.78312 24.5756C5.23506 24.5756 5.64935 24.4269 5.98831 24.1295C6.4026 23.7205 6.62857 23.3487 7.00519 22.6423C7.11818 22.4564 7.23117 22.2333 7.38182 21.9359C7.98442 20.7833 8.36104 20.0026 8.43636 19.891C8.43636 19.8538 8.47402 19.8167 8.51169 19.7795C8.77532 19.6679 9.07662 19.5564 9.41558 19.4077C10.6584 18.8872 11.1857 18.7385 12.3156 18.3667L12.8429 18.1808C13.2571 18.0321 13.5584 17.9577 13.8597 17.8462C14.2364 17.6974 14.5377 17.6231 14.839 17.5115C15.1026 17.7346 15.3662 17.9949 15.7052 18.2551C16.4208 18.85 16.9104 19.1474 17.4377 19.2962C17.8896 19.4077 18.5299 19.3705 18.9442 19.259C20.2623 18.9244 20.3 17.9577 20.3377 17.5487C20.3753 16.991 20.0364 16.0244 18.6052 15.7641ZM29 9.66667C29 12.7526 26.4766 15.2436 23.3506 15.2436C20.2247 15.2436 17.7013 12.7526 17.7013 9.66667C17.7013 6.58077 20.2247 4.08974 23.3506 4.08974C26.4766 4.08974 29 6.58077 29 9.66667ZM26.0247 7.6218C25.7987 7.39872 25.4597 7.39872 25.2338 7.6218L22.2961 10.5218L21.4675 9.66667C21.2416 9.44359 20.9026 9.44359 20.6766 9.66667C20.4506 9.88974 20.4506 10.2244 20.6766 10.4474L21.9195 11.6744C22.0325 11.7859 22.1831 11.8231 22.3338 11.8231C22.4844 11.8231 22.6351 11.7487 22.7481 11.6744L26.0623 8.40256C26.2506 8.21667 26.2506 7.84487 26.0247 7.6218Z" fill="#066BC0"/>
</svg>
