<svg width="29" height="29" viewBox="0 0 29 29" fill="none" xmlns="http://www.w3.org/2000/svg">
<path d="M11.1423 8.38651C10.9974 7.66108 10.9612 7.22583 11.1423 6.64549C11.1785 6.53667 11.2147 6.42786 11.2509 6.39159C11.2872 6.42786 11.2872 6.5004 11.3234 6.60921C11.4682 7.40718 11.4682 7.66108 11.2509 8.71295C11.1785 8.56787 11.1423 8.49533 11.1423 8.38651ZM11.7218 12.9567C11.6131 13.3194 11.4682 13.7184 11.3234 14.2262C10.925 15.4232 10.7439 15.8947 10.6715 16.1486C10.5628 16.5113 10.5628 16.5113 10.3093 17.0916L10.2731 17.1642C10.2006 17.3818 10.092 17.5994 9.98332 17.8171C10.7801 17.4906 11.3234 17.3093 12.2288 17.0191L12.7359 16.8377C13.098 16.7289 13.424 16.6201 13.6775 16.5113L14.0035 16.4025C13.7862 16.1486 13.6051 15.8584 13.3515 15.532C12.6996 14.6615 12.265 13.936 11.7218 12.9567ZM5.31128 22.2059C5.05775 22.8588 5.16641 22.9313 5.20262 22.9676C5.31128 23.0401 5.49236 23.1127 5.63723 23.0039C5.85454 22.7862 5.92697 22.6412 6.28915 21.952C6.3978 21.7706 6.50645 21.5167 6.65132 21.2628L6.75997 21.0452C6.10806 21.4079 5.41993 21.8432 5.31128 22.2059ZM18.7479 17.9259C18.8928 17.8896 18.9652 17.8533 18.9652 17.8533V17.5994C18.9652 17.5632 18.8566 17.4181 18.4944 17.3455C17.9512 17.2367 17.589 17.2367 17.263 17.2367H16.9733C17.589 17.7445 17.8787 17.8896 18.0598 17.9259C18.1322 17.9622 18.4582 17.9622 18.7479 17.9259ZM23.2751 16.2937V21.5167L16.1041 28.8073H4.40584C2.41388 28.8073 0.820312 27.1751 0.820312 25.1439V4.17903C0.820312 2.14784 2.41388 0.515625 4.40584 0.515625H19.6896C21.5005 0.515625 22.9492 1.85767 23.2389 3.59869C19.762 3.63496 16.9371 6.46413 16.9371 9.94618C16.9371 13.4645 19.762 16.2937 23.2751 16.2937ZM21.5367 22.2422H17.8787C17.263 22.2422 16.7922 22.7137 16.7922 23.3303V27.0663L21.5367 22.2422ZM18.7117 15.8947C18.0598 15.7859 17.6252 15.7859 17.2268 15.7859C16.8284 15.7859 16.5025 15.8221 15.9954 15.8947C15.8506 15.931 15.6695 15.9672 15.5608 15.9672C15.1986 15.6045 14.9451 15.2418 14.5467 14.6977C13.7862 13.6096 13.3153 12.8479 12.5548 11.5058C12.4461 11.3245 12.3375 11.1069 12.2288 10.9255C12.3012 10.5991 12.3737 10.2364 12.4461 9.80109L12.5548 9.2933C12.8445 7.91498 12.9169 7.44346 12.6996 6.31904C12.4461 5.08582 11.6131 4.79565 11.1785 4.83192C10.9612 4.83192 10.092 4.977 9.7298 6.2465C9.47628 7.11701 9.5125 7.7699 9.7298 8.67668C9.87467 9.32957 10.2006 10.1275 10.7439 11.1069C10.5628 11.8686 10.3455 12.5577 9.94711 13.7184C9.54872 14.9154 9.36763 15.3869 9.29519 15.6771C9.18654 16.0035 9.18654 16.0035 8.96924 16.5476L8.93302 16.6201C8.6795 17.3093 8.24489 18.1435 7.95515 18.6876C7.52054 18.9052 7.08593 19.1228 6.47023 19.4855C5.16641 20.2472 4.26097 20.7913 3.93501 21.6618C3.75393 22.1334 3.31932 23.294 4.26097 24.0557C4.58693 24.3459 5.02154 24.491 5.41993 24.491C5.85454 24.491 6.25293 24.3459 6.57889 24.0557C6.97728 23.6568 7.19458 23.294 7.55676 22.6049C7.66541 22.4235 7.77406 22.2059 7.91893 21.9157C8.49841 20.7913 8.86058 20.0296 8.93302 19.9208C8.93302 19.8845 8.96924 19.8483 9.00545 19.812C9.25898 19.7032 9.54871 19.5944 9.87467 19.4493C11.0698 18.9415 11.5769 18.7964 12.6634 18.4337L13.1705 18.2523C13.5689 18.1072 13.8586 18.0347 14.1483 17.9259C14.5105 17.7808 14.8002 17.7083 15.09 17.5994C15.3435 17.8171 15.597 18.071 15.923 18.3249C16.6111 18.9052 17.0819 19.1954 17.589 19.3405C18.0236 19.4493 18.6393 19.413 19.0377 19.3042C20.3053 18.9777 20.3415 18.0347 20.3777 17.6357C20.4139 17.0916 20.088 16.1486 18.7117 15.8947ZM28.7077 9.94618C28.7077 12.9567 26.2812 15.3869 23.2751 15.3869C20.2691 15.3869 17.8425 12.9567 17.8425 9.94618C17.8425 6.93566 20.2691 4.50548 23.2751 4.50548C26.2812 4.50548 28.7077 6.93566 28.7077 9.94618ZM25.8466 7.95125C25.6293 7.73363 25.3033 7.73363 25.086 7.95125L22.261 10.7804L21.4643 9.94618C21.2469 9.72855 20.921 9.72855 20.7037 9.94618C20.4864 10.1638 20.4864 10.4903 20.7037 10.7079L21.8989 11.9048C22.0075 12.0136 22.1524 12.0499 22.2973 12.0499C22.4421 12.0499 22.587 11.9774 22.6956 11.9048L25.8828 8.71295C26.0639 8.5316 26.0639 8.16888 25.8466 7.95125Z" fill="white"/>
</svg>
