<svg width="55" height="55" viewBox="0 0 55 55" fill="none" xmlns="http://www.w3.org/2000/svg">
<path d="M27.5 51.5625C21.1182 51.5625 14.9978 49.0274 10.4852 44.5148C5.97265 40.0022 3.4375 33.8818 3.4375 27.5C3.4375 21.1182 5.97265 14.9978 10.4852 10.4852C14.9978 5.97265 21.1182 3.4375 27.5 3.4375C33.8818 3.4375 40.0022 5.97265 44.5148 10.4852C49.0274 14.9978 51.5625 21.1182 51.5625 27.5C51.5625 33.8818 49.0274 40.0022 44.5148 44.5148C40.0022 49.0274 33.8818 51.5625 27.5 51.5625ZM27.5 55C34.7935 55 41.7882 52.1027 46.9454 46.9454C52.1027 41.7882 55 34.7935 55 27.5C55 20.2065 52.1027 13.2118 46.9454 8.05456C41.7882 2.89731 34.7935 0 27.5 0C20.2065 0 13.2118 2.89731 8.05456 8.05456C2.89731 13.2118 0 20.2065 0 27.5C0 34.7935 2.89731 41.7882 8.05456 46.9454C13.2118 52.1027 20.2065 55 27.5 55Z" fill="white"/>
<path d="M14.7304 32.8866C15.1252 32.6587 15.5943 32.5969 16.0346 32.7149C16.4749 32.8328 16.8503 33.1209 17.0782 33.5156C18.1345 35.3451 19.6538 36.8642 21.4833 37.9202C23.3129 38.9761 25.3883 39.5318 27.5007 39.5312C29.6132 39.5318 31.6886 38.9761 33.5181 37.9202C35.3477 36.8642 36.867 35.3451 37.9232 33.5156C38.0353 33.3186 38.1852 33.1456 38.3643 33.0068C38.5435 32.8679 38.7483 32.7658 38.967 32.7064C39.1858 32.647 39.4141 32.6315 39.6389 32.6607C39.8637 32.6899 40.0805 32.7633 40.2768 32.8767C40.4731 32.99 40.645 33.141 40.7827 33.3211C40.9204 33.5012 41.0211 33.7067 41.079 33.9258C41.137 34.1449 41.151 34.3734 41.1203 34.598C41.0896 34.8225 41.0147 35.0388 40.9001 35.2344C39.5422 37.5864 37.589 39.5394 35.2368 40.8971C32.8847 42.2548 30.2166 42.9693 27.5007 42.9688C24.7849 42.9693 22.1168 42.2548 19.7646 40.8971C17.4125 39.5394 15.4593 37.5864 14.1014 35.2344C13.8734 34.8396 13.8117 34.3705 13.9297 33.9302C14.0476 33.4899 14.3357 33.1145 14.7304 32.8866ZM24.0632 22.3438C24.0632 25.19 22.5232 27.5 20.6257 27.5C18.7282 27.5 17.1882 25.19 17.1882 22.3438C17.1882 19.4975 18.7282 17.1875 20.6257 17.1875C22.5232 17.1875 24.0632 19.4975 24.0632 22.3438ZM37.8132 22.3438C37.8132 25.19 36.2732 27.5 34.3757 27.5C32.4782 27.5 30.9382 25.19 30.9382 22.3438C30.9382 19.4975 32.4782 17.1875 34.3757 17.1875C36.2732 17.1875 37.8132 19.4975 37.8132 22.3438Z" fill="white"/>
</svg>
