<svg width="40" height="40" viewBox="0 0 40 40" fill="none" xmlns="http://www.w3.org/2000/svg">
<path d="M40 20C40 31.0457 31.0457 40 20 40C8.95428 40 0 31.0457 0 20C0 8.95428 8.95428 0 20 0C31.0457 0 40 8.95428 40 20ZM17.6866 30.5898L32.5253 15.7511C33.0292 15.2473 33.0292 14.4302 32.5253 13.9264L30.7006 12.1016C30.1967 11.5977 29.3797 11.5977 28.8757 12.1016L16.7742 24.2031L11.1243 18.5531C10.6204 18.0493 9.80339 18.0493 9.29944 18.5531L7.47468 20.3779C6.97081 20.8818 6.97081 21.6988 7.47468 22.2027L15.8618 30.5898C16.3657 31.0937 17.1827 31.0937 17.6866 30.5898Z" fill="#65BA34"/>
</svg>
