<svg width="30" height="31" viewBox="0 0 30 31" fill="none" xmlns="http://www.w3.org/2000/svg">
<path d="M30 15.4392C30 23.7235 23.2843 30.4392 15 30.4392C6.71571 30.4392 0 23.7235 0 15.4392C0 7.15491 6.71571 0.439209 15 0.439209C23.2843 0.439209 30 7.15491 30 15.4392ZM13.265 23.3816L24.394 12.2526C24.7719 11.8747 24.7719 11.2619 24.394 10.884L23.0254 9.51542C22.6475 9.13745 22.0348 9.13745 21.6568 9.51542L12.5806 18.5915L8.34321 14.3541C7.9653 13.9762 7.35254 13.9762 6.97458 14.3541L5.60601 15.7226C5.2281 16.1005 5.2281 16.7133 5.60601 17.0912L11.8963 23.3815C12.2743 23.7595 12.887 23.7595 13.265 23.3816Z" fill="#5CE60D"/>
</svg>
