<svg width="25" height="25" viewBox="0 0 25 25" fill="none" xmlns="http://www.w3.org/2000/svg">
<path d="M4.16667 0C1.87242 0 0 1.87242 0 4.16667V20.8333C0 23.1276 1.87242 25 4.16667 25H20.8333C23.1276 25 25 23.1276 25 20.8333V4.16667C25 1.87242 23.1276 0 20.8333 0H4.16667ZM4.16667 1.19048H20.8333C22.4843 1.19048 23.8095 2.51567 23.8095 4.16667V20.8333C23.8095 22.4843 22.4843 23.8095 20.8333 23.8095H4.16667C2.51567 23.8095 1.19048 22.4843 1.19048 20.8333V4.16667C1.19048 2.51567 2.51567 1.19048 4.16667 1.19048ZM5.4083 5.35714L10.898 13.1569L5.35714 19.6429H6.84524L11.5699 14.1113L15.4622 19.6429H20.1869L14.1602 11.0793L19.0476 5.35714H17.5595L13.4882 10.1249L10.133 5.35714H5.4083ZM7.68694 6.54762H9.51102L17.9083 18.4524H16.0842L7.68694 6.54762Z" fill="white"/>
</svg>
